<svg width="53" height="44" viewBox="0 0 53 44" fill="none" xmlns="http://www.w3.org/2000/svg">
<path d="M5.14877 36.4872C5.73478 34.4175 6.33081 32.3478 6.90456 30.2793C9.49069 20.9281 12.0739 11.5754 14.6541 2.22116C14.9883 0.998373 15.9987 0.414388 17.2164 0.748892C19.7417 1.44326 22.2636 2.14509 24.7821 2.85437C26.0521 3.21237 26.5847 4.23378 26.2193 5.55614C25.0175 9.89687 23.8166 14.238 22.6163 18.5794C22.5985 18.6432 22.5896 18.7103 22.5562 18.8826C23.0987 18.3926 23.57 17.972 24.0379 17.5401C26.985 14.8619 29.931 12.1828 32.8759 9.50307C33.8429 8.62486 34.9692 8.67296 35.8504 9.64403C37.6018 11.572 39.3471 13.5052 41.0866 15.4436C41.9856 16.4438 41.9054 17.586 40.9028 18.4978C36.3685 22.617 31.8379 26.7385 27.3111 30.8621C27.1996 30.964 27.0882 31.0691 26.8777 31.2694H27.447C33.4786 31.2694 39.5105 31.2694 45.5429 31.2694C45.8473 31.2577 46.1519 31.2871 46.4486 31.3566C46.8547 31.4651 47.213 31.7069 47.4665 32.0434C47.7201 32.3799 47.8543 32.7918 47.8479 33.2137C47.8524 35.936 47.8524 38.6583 47.8479 41.3806C47.8503 41.8958 47.6495 42.3911 47.2894 42.7581C46.9293 43.1252 46.4392 43.3342 45.9261 43.3395C45.3992 43.3507 44.87 43.3395 44.3419 43.3395C33.2754 43.3395 22.2123 43.3395 11.1525 43.3395C9.83722 43.3373 8.55882 42.9026 7.51269 42.102C6.46656 41.3014 5.71024 40.1789 5.35933 38.9059C5.29026 38.6553 5.22342 38.4047 5.15657 38.1541L5.14877 36.4872ZM21.4143 18.1398L22.4526 14.3506L20.4651 13.7912C19.6507 13.5675 18.8352 13.3437 18.0241 13.1121C17.6442 13.0003 17.4404 12.6837 17.5139 12.3637C17.5963 12.0001 17.9027 11.8099 18.3093 11.8737C18.3904 11.892 18.4703 11.9148 18.5489 11.9419L22.7991 13.1155C23.15 11.8457 23.492 10.605 23.8441 9.32855L14.7031 6.7834L13.6603 10.5704C14.0569 10.6822 14.4156 10.7762 14.7744 10.878C15.1331 10.9798 15.493 11.0839 15.8517 11.1879C16.4611 11.3647 16.6761 11.6287 16.5613 12.0605C16.4499 12.4666 16.1012 12.5796 15.4907 12.4096C14.7755 12.2104 14.0603 12.0147 13.3149 11.8088L12.2733 15.5924L21.4143 18.1398ZM31.0075 32.5716H27.1395V42.0541H31.0165C31.0165 41.7453 31.0165 41.4678 31.0165 41.1893C31.0265 40.7026 31.2582 40.4274 31.6537 40.4229C32.0492 40.4185 32.2854 40.6825 32.3032 41.177C32.3132 41.4645 32.3032 41.7531 32.3032 42.0563H36.1791V32.5693H32.3043V33.0001C32.3043 34.7714 32.3043 36.5428 32.3043 38.3141C32.3043 38.8802 32.0815 39.1621 31.666 39.1643C31.2504 39.1666 31.0187 38.8791 31.0153 38.3264C31.0153 37.6552 31.0153 36.9839 31.0153 36.3183L31.0075 32.5716ZM15.4417 32.547C14.0302 32.547 12.6565 32.547 11.2829 32.547C8.73052 32.5548 6.821 34.2195 6.44779 36.7568C6.08349 39.2438 8.02531 41.8135 10.5175 42.0015C12.1062 42.1212 13.7082 42.0608 15.308 42.0798C15.3559 42.0724 15.4024 42.0581 15.4462 42.0373L15.4417 32.547ZM16.7563 42.0563H20.6344V32.5738H16.7563V42.0563ZM21.9446 32.5638V42.0619H25.8026V32.5638H21.9446ZM37.5171 32.5638V42.0529H41.3729V32.5638H37.5171ZM23.7616 19.5192L30.1319 26.5785L33.0285 23.9382L26.6571 16.8778C25.6778 17.7751 24.7331 18.6354 23.7616 19.5192ZM22.818 20.3739L19.9214 23.0186C22.0682 25.3971 24.1716 27.7274 26.2906 30.0768L29.1872 27.4343C27.0537 25.0682 24.9492 22.7367 22.818 20.3694V20.3739ZM30.5051 13.3818L27.6085 16.0231L33.9766 23.0824L36.8731 20.441L30.5051 13.3818ZM42.692 32.5481V42.0731C43.7927 42.0731 44.8722 42.0943 45.9495 42.0619C46.3807 42.0485 46.5901 41.7263 46.5934 41.2363C46.6001 40.3994 46.5934 39.5581 46.5934 38.7258C46.5934 36.9548 46.5934 35.1827 46.5934 33.4118C46.5934 32.8781 46.345 32.5615 45.8916 32.5548C44.8377 32.538 43.7838 32.5481 42.692 32.5481ZM31.451 12.5226L37.8223 19.5863C38.6412 18.8345 39.4589 18.104 40.2499 17.3488C40.5351 17.0759 40.5006 16.7055 40.2042 16.3766C38.4299 14.3994 36.6514 12.4263 34.8689 10.4574C34.5347 10.0938 34.1682 10.0658 33.805 10.3869C33.0251 11.0771 32.2642 11.7864 31.451 12.5237V12.5226ZM15.0507 5.55055L24.1928 8.09681C24.4713 7.07875 24.7442 6.09313 25.0116 5.10416C25.1575 4.56493 24.9826 4.24385 24.4546 4.08947C23.9766 3.94962 23.4953 3.8232 23.0152 3.69007C21.0032 3.12846 18.9908 2.56723 16.978 2.00636C16.3965 1.84414 16.0455 1.97951 15.9052 2.45386C15.6144 3.47639 15.3437 4.48997 15.0507 5.55166V5.55055ZM10.9041 20.5596C10.9486 20.601 10.9654 20.6301 10.9888 20.6368C13.374 21.3081 15.7581 21.9704 18.1467 22.6192C18.2804 22.6562 18.4932 22.5711 18.609 22.4716C19.1471 22.0095 19.6329 21.4815 20.1966 21.0563C20.7603 20.6312 20.9385 20.0305 21.0511 19.357L11.9357 16.823L10.9041 20.5596ZM18.9744 23.87L16.0957 26.4934C16.1298 26.5485 16.167 26.6015 16.2071 26.6523C17.544 28.1402 18.8809 29.6315 20.2389 31.1083C20.3392 31.2201 20.5542 31.266 20.7157 31.2682C22.0203 31.2806 23.326 31.2873 24.6306 31.2682C24.8712 31.2682 25.1096 31.1105 25.4104 31.0031L18.9744 23.87ZM9.50481 25.6253C10.9331 26.0258 12.29 26.4084 13.6514 26.7765C13.7201 26.7811 13.7891 26.7713 13.8539 26.7478C13.9187 26.7243 13.978 26.6876 14.0279 26.64C15.0306 25.745 16.0333 24.8299 17.0259 23.9203C17.0936 23.8498 17.1569 23.775 17.2153 23.6966L10.5509 21.8395C10.2056 23.1115 9.85797 24.3499 9.50481 25.6275V25.6253ZM15.1298 27.3672L10.8673 31.2503H18.6313L15.1298 27.3672ZM9.1639 26.8582L7.62759 32.4172L12.7111 27.8494L9.1639 26.8582Z" fill="#F6F6F6"/>
<path d="M13.6525 37.3064C13.651 37.9471 13.3978 38.5613 12.9478 39.0155C12.4978 39.4697 11.8874 39.7271 11.2494 39.7318C10.6184 39.7204 10.0163 39.4644 9.56901 39.0173C9.12173 38.5703 8.86398 37.9668 8.8497 37.3332C8.84937 36.6928 9.10058 36.0781 9.54882 35.6225C9.99706 35.167 10.6061 34.9073 11.2438 34.9C11.5597 34.8979 11.8728 34.9586 12.1652 35.0787C12.4575 35.1987 12.7233 35.3757 12.9472 35.5994C13.1712 35.8231 13.3488 36.0891 13.4698 36.3821C13.5908 36.6751 13.6529 36.9892 13.6525 37.3064ZM11.2672 38.4251C11.5622 38.4255 11.8456 38.3095 12.0562 38.1021C12.2669 37.8947 12.388 37.6126 12.3936 37.3164C12.3895 37.0132 12.2679 36.7234 12.0544 36.5089C11.8409 36.2943 11.5525 36.1718 11.2505 36.1675C11.1006 36.1691 10.9525 36.2007 10.8149 36.2605C10.6773 36.3202 10.553 36.407 10.4492 36.5157C10.3454 36.6244 10.2643 36.7528 10.2106 36.8934C10.1569 37.0339 10.1317 37.1839 10.1365 37.3343C10.136 37.4817 10.1653 37.6276 10.2225 37.7634C10.2797 37.8991 10.3636 38.0218 10.4693 38.1241C10.5749 38.2264 10.7 38.3062 10.8372 38.3587C10.9743 38.4112 11.1206 38.4353 11.2672 38.4296V38.4251Z" fill="#F6F6F6"/>
</svg>
