<svg width="53" height="44" viewBox="0 0 53 44" fill="none" xmlns="http://www.w3.org/2000/svg">
<path d="M47.852 23.4105C47.7406 24.2034 47.6549 25.0009 47.5113 25.7883C46.8686 29.3989 45.2979 32.7801 42.9534 35.5994C42.6683 35.9469 42.3488 36.036 42.0516 35.8578C41.7543 35.6796 41.6819 35.3789 41.7988 35.0626C41.8723 34.9132 41.9688 34.7764 42.085 34.6572C43.8418 32.4965 45.1388 30.0852 45.8324 27.3921C47.6048 20.518 46.271 14.2955 41.6719 8.86482C38.5424 5.16715 34.5166 2.91291 29.7316 2.18229C23.5927 1.24228 18.0885 2.77592 13.358 6.84001C9.83657 9.86609 7.65557 13.703 6.77271 18.2616C4.93351 27.7652 10.3086 37.348 19.3677 40.7683C22.2279 41.8664 25.3037 42.2858 28.3533 41.9935C32.6162 41.5825 36.3903 39.9809 39.6423 37.1765C39.7258 37.1041 39.8093 37.0306 39.8962 36.9615C40.2524 36.6775 40.6076 36.6742 40.8581 36.9515C41.1086 37.2288 41.0807 37.6298 40.7078 37.9282C39.9285 38.5542 39.1603 39.1979 38.3353 39.757C35.6777 41.5678 32.6324 42.7294 29.4443 43.1484C18.064 44.6832 8.08643 37.2388 5.77518 26.9845C3.90592 18.6915 6.23164 11.5835 12.5364 5.86993C15.5679 3.1223 19.1929 1.5107 23.2465 0.895905C23.8031 0.811259 24.3598 0.732183 24.9232 0.650879H28.0905C28.5537 0.713249 29.0168 0.770052 29.48 0.837991C33.302 1.39487 36.7544 2.83718 39.767 5.26405C43.9464 8.63093 46.5583 12.949 47.5168 18.2449C47.6516 18.99 47.7395 19.744 47.8508 20.4946L47.852 23.4105Z" fill="#F6F6F6"/>
<path d="M13.3991 23.2938H39.6134V20.6709H21.7479C21.5812 20.6759 21.4144 20.6725 21.248 20.6608C20.8929 20.6252 20.6981 20.418 20.6791 20.0628C20.6742 19.9829 20.685 19.9028 20.7109 19.8272C20.7369 19.7515 20.7775 19.6816 20.8304 19.6217C20.8833 19.5617 20.9476 19.5127 21.0194 19.4775C21.0913 19.4424 21.1693 19.4217 21.2492 19.4168C21.3459 19.4112 21.443 19.4112 21.5397 19.4168H39.4141C40.4038 19.4168 40.9204 19.9369 40.9226 20.9337C40.9226 21.6699 40.9226 22.4061 40.9226 23.1423C40.9226 24.0333 40.3749 24.5801 39.502 24.5801H13.5038C12.6543 24.5801 12.1044 24.0233 12.0977 23.1701C12.0977 22.3783 12.0899 21.5864 12.0977 20.7945C12.1066 19.967 12.6644 19.4201 13.4938 19.4179C15.0621 19.4179 16.6315 19.4179 18.202 19.4179C18.6752 19.4179 18.9747 19.664 18.9813 20.0427C18.988 20.4214 18.6963 20.672 18.2131 20.6742C16.7658 20.6742 15.3252 20.6742 13.8801 20.6742H13.4036L13.3991 23.2938Z" fill="#F6F6F6"/>
<path d="M27.1442 28.9816V29.4271C27.1442 31.6078 27.1442 33.7886 27.1442 35.9693C27.1502 36.1219 27.1428 36.2747 27.1219 36.4259C27.0607 36.7679 26.8447 36.9828 26.4963 36.9828C26.1478 36.9828 25.9396 36.7601 25.8695 36.4259C25.8504 36.2883 25.8449 36.1492 25.8528 36.0105V28.9827L25.7693 28.956C25.5154 29.3736 25.2594 29.7913 25.0055 30.209C24.7973 30.5531 24.5969 30.9017 24.3832 31.2436C24.1271 31.6535 23.7764 31.7649 23.4446 31.5555C23.1129 31.3461 23.0672 30.9875 23.3099 30.5687C23.4569 30.317 23.6083 30.0686 23.7553 29.8191C24.45 28.6675 25.1447 27.5166 25.8394 26.3665C26.2469 25.6983 26.7501 25.6983 27.162 26.3776C27.9903 27.7409 28.8168 29.1052 29.6414 30.4707C29.6864 30.5404 29.7277 30.6126 29.765 30.6868C29.9331 31.0331 29.8451 31.3806 29.5479 31.5611C29.2506 31.7415 28.8966 31.6724 28.6839 31.3316C28.262 30.6634 27.8601 29.9829 27.4492 29.3068C27.3791 29.1954 27.3034 29.0785 27.2266 28.9649L27.1442 28.9816Z" fill="#F6F6F6"/>
<path d="M33.9354 28.9559L32.7386 30.9383C32.6596 31.0687 32.5839 31.2012 32.497 31.327C32.2666 31.6556 31.9404 31.7436 31.6331 31.5654C31.3258 31.3872 31.2267 31.0197 31.4249 30.6599C31.613 30.3202 31.8212 29.9917 32.0216 29.6575C32.6896 28.5438 33.3576 27.4222 34.0412 26.3085C34.3975 25.7226 34.923 25.7104 35.2736 26.284C36.1502 27.7148 37.0208 29.1497 37.8855 30.5886C38.1249 30.9862 38.0425 31.3738 37.7029 31.5654C37.3633 31.757 37.0483 31.6333 36.7978 31.2424C36.7521 31.1722 36.7121 31.0987 36.6686 31.0274C36.3101 30.4334 35.9505 29.8394 35.5898 29.2454C35.5271 29.1275 35.4295 29.0319 35.3104 28.9715V35.8667C35.3104 35.9781 35.3104 36.0895 35.3104 36.2008C35.2926 36.6798 35.0543 36.9805 34.6802 36.9805C34.3062 36.9805 34.0256 36.6775 34.0245 36.183C34.0245 33.9325 34.0245 31.682 34.0245 29.4314V28.9759L33.9354 28.9559Z" fill="#F6F6F6"/>
<path d="M17.5975 28.9682L16.3339 31.0587C16.2735 31.1679 16.2073 31.2739 16.1357 31.3761C15.913 31.6701 15.579 31.7381 15.2896 31.5587C15.1517 31.4751 15.0515 31.3413 15.01 31.1854C14.9685 31.0294 14.9889 30.8635 15.0669 30.7223C15.1571 30.5363 15.2729 30.3615 15.3798 30.1833C16.1524 28.9002 16.9254 27.6179 17.6988 26.3364C18.0796 25.7093 18.5973 25.7071 18.9769 26.3364C19.8275 27.7352 20.6743 29.1356 21.5175 30.5374C21.7836 30.9829 21.7402 31.3449 21.3973 31.5576C21.0543 31.7704 20.7092 31.6467 20.4387 31.2035C19.9833 30.4584 19.5347 29.7099 19.0103 28.8423C18.998 29.1018 18.9869 29.2399 18.9858 29.3791C18.9858 31.5599 18.9858 33.7402 18.9858 35.9202C18.9858 36.0182 18.9858 36.1151 18.9858 36.212C18.9702 36.6854 18.7264 36.9916 18.3523 36.9916C17.9783 36.9916 17.6955 36.6887 17.6944 36.1953C17.6899 33.944 17.6899 31.6939 17.6944 29.4448V28.9938L17.5975 28.9682Z" fill="#F6F6F6"/>
<path d="M25.7648 10.091L24.6415 11.9554C24.5479 12.1091 24.4589 12.2672 24.3587 12.4165C24.1082 12.7874 23.7597 12.8842 23.4368 12.6793C23.1396 12.49 23.0672 12.1224 23.2776 11.7605C23.5337 11.315 23.8065 10.8817 24.0703 10.4429C24.6637 9.45722 25.2538 8.47044 25.8516 7.48588C26.2491 6.82988 26.7557 6.82431 27.1509 7.47363C28.0015 8.87028 28.8479 10.2695 29.6904 11.6714C29.952 12.1046 29.8952 12.4933 29.5556 12.6893C29.2161 12.8854 28.8643 12.7517 28.5982 12.3151C28.1451 11.5745 27.6975 10.8316 27.1709 10.1021C27.1642 10.2446 27.1509 10.3872 27.1509 10.5298C27.1509 12.6957 27.1509 14.8612 27.1509 17.0263C27.1509 17.1243 27.1509 17.2212 27.1509 17.3181C27.1353 17.8237 26.8892 18.1222 26.4951 18.1156C26.101 18.1089 25.8616 17.8048 25.8605 17.2992C25.8605 15.0494 25.8605 12.8003 25.8605 10.552V10.1166L25.7648 10.091Z" fill="#F6F6F6"/>
<path d="M17.593 10.1002C17.1477 10.8486 16.7024 11.6071 16.2326 12.3399C16.0999 12.5429 15.8982 12.6909 15.6648 12.7565C15.5592 12.7608 15.4541 12.7393 15.3587 12.6939C15.2633 12.6485 15.1803 12.5805 15.117 12.4959C15.0637 12.396 15.0332 12.2856 15.0276 12.1726C15.022 12.0596 15.0415 11.9467 15.0847 11.8421C15.9695 10.3192 16.8761 8.80896 17.8046 7.31134C18.1085 6.82017 18.6284 6.89256 18.9646 7.44387C19.8241 8.85463 20.6777 10.2654 21.5253 11.6761C21.5464 11.7118 21.5687 11.7463 21.5876 11.7875C21.7669 12.1395 21.699 12.4881 21.4095 12.6718C21.1056 12.8679 20.7293 12.7888 20.5111 12.4491C20.088 11.7808 19.6872 11.0992 19.2753 10.4243C19.2061 10.2973 19.1043 10.1912 18.9802 10.1169V17.0556C18.9802 17.167 18.9802 17.2783 18.9802 17.3897C18.9569 17.8352 18.7086 18.117 18.3423 18.1214C17.976 18.1259 17.7144 17.8419 17.6899 17.4042C17.6832 17.2928 17.6899 17.1814 17.6899 17.0701V10.1213L17.593 10.1002Z" fill="#F6F6F6"/>
<path d="M35.3104 10.1112V17.1335C35.3104 17.8017 35.1033 18.1113 34.6713 18.1136C34.2394 18.1158 34.0223 17.7928 34.0223 17.1435C34.0223 14.7957 34.0223 12.449 34.0223 9.99876C33.902 10.1658 33.8308 10.2538 33.7718 10.3496C33.3621 11.0256 32.9613 11.7073 32.5471 12.38C32.2955 12.7865 31.9348 12.8889 31.6019 12.6751C31.2935 12.4769 31.2345 12.1104 31.4672 11.7206C32.3304 10.2809 33.1966 8.84342 34.0657 7.40816C34.4097 6.84572 34.9285 6.84572 35.2737 7.40816C36.151 8.83971 37.0208 10.2757 37.8833 11.7162C38.1171 12.1049 38.0547 12.4724 37.7441 12.6707C37.4101 12.88 37.0472 12.772 36.8 12.3699C36.3335 11.6148 35.8782 10.853 35.4195 10.0934L35.3104 10.1112Z" fill="#F6F6F6"/>
</svg>
