<svg width="53" height="44" viewBox="0 0 53 44" fill="none" xmlns="http://www.w3.org/2000/svg">
<path d="M8.73918 42.4418C8.38856 42.4383 8.04212 42.3654 7.7199 42.2271C7.39769 42.0888 7.10612 41.8879 6.86208 41.6362C6.54107 41.3165 6.30792 40.9195 6.18514 40.4834C6.06236 40.0473 6.05411 39.587 6.16119 39.1468C7.32934 34.305 9.31117 25.6123 9.31117 21.979C9.31117 18.3456 7.3374 9.70128 6.1773 4.85948C6.06638 4.41435 6.07253 3.94808 6.19515 3.50602C6.31778 3.06397 6.5527 2.66116 6.87709 2.33678C7.20147 2.01239 7.60428 1.77747 8.04633 1.65484C8.48839 1.53222 8.95466 1.52607 9.39979 1.63699C14.2335 2.86154 22.894 4.91588 26.5193 4.91588C30.1446 4.91588 38.7567 2.86959 43.5824 1.69338C44.0301 1.57402 44.5015 1.57525 44.9486 1.69693C45.3957 1.81861 45.8026 2.05642 46.1281 2.38622C46.4552 2.71187 46.6912 3.1175 46.8128 3.56273C46.9343 4.00797 46.9372 4.47727 46.821 4.92393C45.5723 9.75767 43.4938 18.3698 43.4938 21.987C43.4938 25.6043 45.5642 34.2647 46.8371 39.1065C46.9451 39.5476 46.9384 40.009 46.8175 40.4467C46.6966 40.8845 46.4656 41.2839 46.1465 41.6071C45.8275 41.9302 45.4309 42.1662 44.9947 42.2926C44.5586 42.4189 44.0973 42.4315 43.6549 42.329C38.8211 41.1931 30.1526 39.2837 26.5354 39.2837C22.9181 39.2837 14.2094 41.2011 9.35146 42.3451C9.15185 42.4012 8.94635 42.4336 8.73918 42.4418ZM8.73918 2.96627C8.55277 2.96836 8.36923 3.01244 8.20219 3.09523C8.03516 3.17801 7.88892 3.29737 7.77436 3.44445C7.6598 3.59152 7.57986 3.76251 7.54047 3.94473C7.50109 4.12695 7.50327 4.3157 7.54686 4.49695C8.72307 9.39514 10.6968 18.1925 10.6968 21.9467C10.6968 25.7009 8.73113 34.6111 7.54686 39.4932C7.4953 39.6979 7.4979 39.9125 7.5544 40.1159C7.6109 40.3193 7.71935 40.5045 7.86911 40.6533C8.01841 40.8025 8.20331 40.9111 8.40631 40.9689C8.60932 41.0267 8.82371 41.0318 9.02921 40.9836C13.9435 39.8235 22.7248 37.882 26.5354 37.882C30.346 37.882 39.1192 39.8155 43.953 40.9675C44.1631 41.0239 44.3844 41.0237 44.5944 40.9668C44.8044 40.91 44.9957 40.7986 45.1487 40.644C45.3017 40.4893 45.411 40.2969 45.4656 40.0863C45.5202 39.8757 45.5181 39.6544 45.4595 39.4449C44.1946 34.5386 42.0678 25.7493 42.0678 21.9629C42.0678 18.1764 44.1866 9.44348 45.4434 4.5614C45.4996 4.35444 45.4994 4.13618 45.4427 3.92932C45.3861 3.72247 45.275 3.53458 45.1211 3.38519C44.9719 3.23335 44.7857 3.12302 44.5808 3.0651C44.376 3.00717 44.1596 3.00365 43.953 3.05489C39.0628 4.28749 30.3057 6.35794 26.5434 6.35794C22.7651 6.35794 13.9757 4.27943 9.06949 3.03877C8.96684 3.01232 8.86129 2.99879 8.75529 2.99849L8.73918 2.96627Z" fill="white"/>
<path d="M18.1814 29.7164L13.3463 34.4822L13.2747 32.0234C13.2726 31.9501 13.2561 31.878 13.226 31.8113C13.196 31.7445 13.1531 31.6843 13.0998 31.6342C13.0465 31.5841 12.9837 31.545 12.9152 31.5192C12.8466 31.4934 12.7736 31.4814 12.7003 31.4839C12.627 31.4863 12.5549 31.5031 12.4879 31.5334C12.421 31.5637 12.3607 31.6068 12.3104 31.6603C12.26 31.7139 12.2207 31.7768 12.1947 31.8454C12.1686 31.9141 12.1563 31.9871 12.1584 32.0604L12.2677 35.7955C12.2677 35.8145 12.2724 35.8319 12.2739 35.8492C12.2755 35.8666 12.277 35.8776 12.2802 35.8918C12.2844 35.9114 12.2899 35.9306 12.2966 35.9494C12.3021 35.966 12.3068 35.9818 12.3131 35.9975C12.3206 36.0147 12.3293 36.0312 12.3391 36.0472C12.3468 36.0627 12.3554 36.0777 12.365 36.0922C12.3763 36.1089 12.3889 36.1247 12.4028 36.1394C12.4123 36.1489 12.4209 36.1576 12.4304 36.167C12.4398 36.1765 12.4351 36.1717 12.4375 36.1741L12.4493 36.1859C12.5497 36.2889 12.6862 36.3489 12.8302 36.3533L16.5653 36.4626C16.6416 36.4647 16.7175 36.4511 16.7885 36.4227C16.8594 36.3943 16.9238 36.3517 16.9777 36.2976C17.0783 36.1972 17.1369 36.0624 17.1419 35.9207C17.1444 35.8474 17.1323 35.7744 17.1065 35.7058C17.0808 35.6373 17.0417 35.5746 16.9916 35.5212C16.9415 35.4679 16.8813 35.425 16.8145 35.395C16.7477 35.365 16.6756 35.3484 16.6023 35.3463L14.1294 35.2747L18.966 30.5074C19.0709 30.4025 19.13 30.2604 19.1303 30.1124C19.1306 29.9643 19.0721 29.8225 18.9676 29.718C18.8637 29.6141 18.7228 29.5556 18.5755 29.5553C18.4282 29.555 18.2866 29.6129 18.1814 29.7164Z" fill="white"/>
<path d="M33.4191 30.4418L38.1849 35.2769L35.7261 35.3485C35.6528 35.3506 35.5807 35.3671 35.5139 35.3971C35.4471 35.4271 35.387 35.47 35.3369 35.5234C35.2867 35.5767 35.2477 35.6394 35.2219 35.708C35.1961 35.7765 35.1841 35.8495 35.1865 35.9228C35.1889 35.9961 35.2058 36.0683 35.236 36.1352C35.2663 36.2021 35.3095 36.2625 35.363 36.3128C35.4166 36.3631 35.4794 36.4024 35.5481 36.4285C35.6167 36.4546 35.6898 36.4669 35.7631 36.4647L39.4982 36.3554C39.5172 36.3555 39.5345 36.3508 39.5519 36.3492C39.5692 36.3477 39.5803 36.3461 39.5945 36.343C39.614 36.3387 39.6333 36.3332 39.6521 36.3265C39.6687 36.3211 39.6844 36.3163 39.7002 36.3101C39.7173 36.3025 39.7339 36.2938 39.7499 36.2841C39.7654 36.2764 39.7804 36.2677 39.7948 36.2582C39.8116 36.2469 39.8274 36.2342 39.8421 36.2204C39.8516 36.2109 39.8602 36.2022 39.8697 36.1928C39.8791 36.1833 39.8744 36.1881 39.8768 36.1857L39.8886 36.1739C39.9915 36.0735 40.0515 35.937 40.056 35.7929L40.1653 32.0578C40.1673 31.9816 40.1538 31.9056 40.1254 31.8347C40.097 31.7638 40.0544 31.6994 40.0002 31.6454C39.8998 31.5449 39.7651 31.4862 39.6234 31.4813C39.5501 31.4788 39.477 31.4908 39.4085 31.5166C39.34 31.5424 39.2772 31.5815 39.2239 31.6316C39.1706 31.6817 39.1277 31.7419 39.0976 31.8087C39.0676 31.8754 39.0511 31.9475 39.049 32.0208L38.9774 34.4938L34.2101 29.6571C34.1052 29.5522 33.9631 29.4932 33.815 29.4929C33.667 29.4926 33.5251 29.5511 33.4207 29.6555C33.3167 29.7595 33.2583 29.9004 33.258 30.0477C33.2577 30.1949 33.3156 30.3366 33.4191 30.4418Z" fill="white"/>
<path d="M34.144 15.204L38.9791 10.4382L39.0507 12.897C39.0529 12.9703 39.0694 13.0424 39.0994 13.1092C39.1294 13.1759 39.1723 13.2361 39.2256 13.2862C39.279 13.3363 39.3417 13.3754 39.4103 13.4012C39.4788 13.427 39.5518 13.439 39.6251 13.4365C39.6984 13.4341 39.7706 13.4173 39.8375 13.387C39.9044 13.3568 39.9647 13.3136 40.0151 13.2601C40.0654 13.2065 40.1047 13.1436 40.1308 13.075C40.1568 13.0063 40.1692 12.9333 40.167 12.86L40.0577 9.12487C40.0577 9.10592 40.053 9.08856 40.0515 9.0712C40.05 9.05383 40.0484 9.04279 40.0453 9.02858C40.041 9.00906 40.0355 8.98982 40.0288 8.97099C40.0233 8.95443 40.0186 8.93865 40.0123 8.92287C40.0048 8.90576 39.9961 8.88916 39.9864 8.8732C39.9787 8.85769 39.97 8.84268 39.9604 8.82825C39.9491 8.81148 39.9365 8.79566 39.9226 8.78097C39.9132 8.77151 39.9045 8.76285 39.8951 8.75339C39.8856 8.74394 39.8903 8.74867 39.888 8.74631L39.8762 8.73449C39.7757 8.63153 39.6392 8.57155 39.4952 8.56712L35.7601 8.45783C35.6838 8.45574 35.6079 8.4693 35.537 8.49769C35.466 8.52607 35.4016 8.56867 35.3477 8.62285C35.2472 8.72326 35.1885 8.858 35.1835 8.99972C35.1811 9.07302 35.1931 9.14603 35.2189 9.21457C35.2447 9.28311 35.2838 9.34584 35.3339 9.39918C35.384 9.45252 35.4441 9.49542 35.5109 9.52543C35.5777 9.55544 35.6498 9.57198 35.7231 9.57409L38.1961 9.64567L33.3594 14.413C33.2545 14.5179 33.1954 14.66 33.1951 14.808C33.1948 14.9561 33.2533 15.0979 33.3578 15.2024C33.4617 15.3063 33.6027 15.3648 33.7499 15.3651C33.8972 15.3654 34.0389 15.3075 34.144 15.204Z" fill="white"/>
<path d="M18.9064 14.4791L14.1406 9.64404L16.5994 9.57243C16.6727 9.57032 16.7448 9.55379 16.8116 9.52378C16.8784 9.49377 16.9385 9.45086 16.9886 9.39752C17.0388 9.34418 17.0778 9.28145 17.1036 9.21291C17.1294 9.14437 17.1414 9.07136 17.139 8.99806C17.1366 8.92476 17.1197 8.85259 17.0895 8.78568C17.0592 8.71877 17.016 8.65842 16.9625 8.6081C16.9089 8.55778 16.8461 8.51846 16.7774 8.49239C16.7088 8.46632 16.6357 8.45401 16.5624 8.45617L12.8273 8.56546C12.8083 8.56542 12.791 8.57012 12.7736 8.57166C12.7563 8.57321 12.7452 8.57476 12.731 8.57789C12.7115 8.58218 12.6922 8.58767 12.6734 8.59435C12.6568 8.59985 12.6411 8.60455 12.6253 8.61083C12.6082 8.61838 12.5916 8.62705 12.5756 8.63679C12.5601 8.64449 12.5451 8.65316 12.5307 8.66274C12.5139 8.67402 12.4981 8.68666 12.4834 8.70054C12.4739 8.70999 12.4653 8.71866 12.4558 8.72811C12.4464 8.73757 12.4511 8.73284 12.4487 8.7352L12.4369 8.74702C12.334 8.84743 12.274 8.98393 12.2695 9.12795L12.1602 12.8631C12.1582 12.9393 12.1717 13.0153 12.2001 13.0862C12.2285 13.1571 12.2711 13.2215 12.3253 13.2755C12.4257 13.376 12.5604 13.4347 12.7021 13.4396C12.7754 13.4421 12.8485 13.4301 12.917 13.4043C12.9855 13.3785 13.0483 13.3394 13.1016 13.2893C13.1549 13.2392 13.1978 13.179 13.2279 13.1122C13.2579 13.0455 13.2744 12.9734 13.2765 12.9001L13.3481 10.4271L18.1154 15.2638C18.2203 15.3686 18.3624 15.4277 18.5105 15.428C18.6585 15.4283 18.8004 15.3698 18.9048 15.2654C19.0088 15.1614 19.0672 15.0205 19.0675 14.8732C19.0678 14.726 19.0099 14.5843 18.9064 14.4791Z" fill="white"/>
</svg>
