<svg width="53" height="44" viewBox="0 0 53 44" fill="none" xmlns="http://www.w3.org/2000/svg">
<path d="M5.11603 18.9973C5.3968 18.7321 5.66974 18.457 5.9617 18.2041C12.6577 12.4234 19.3548 6.64339 26.053 0.864161L26.3003 0.651367H26.8025C30.3232 3.68841 33.843 6.72546 37.3622 9.7625C37.7425 10.0912 37.8096 10.4778 37.5602 10.7752C37.3107 11.0727 36.9069 11.0727 36.4986 10.7195C33.2808 7.9454 30.0644 5.17017 26.8495 2.39382C26.7566 2.31361 26.6604 2.23785 26.5464 2.14315C25.4814 3.06117 24.4266 3.96805 23.3751 4.87605C17.8089 9.68229 12.2412 14.4863 6.67201 19.2881C6.57518 19.3627 6.49845 19.4601 6.44867 19.5715C6.39889 19.6829 6.37762 19.8049 6.38677 19.9265C6.40019 20.7843 6.38677 21.6422 6.38677 22.5747C6.5389 22.4633 6.64069 22.4076 6.72235 22.3318C13.0611 16.8638 19.3999 11.3947 25.7387 5.92442C25.8014 5.86983 25.864 5.81301 25.9278 5.76064C26.4401 5.32614 26.6537 5.315 27.1582 5.75173C28.2668 6.70429 29.3708 7.66353 30.4783 8.61832C35.773 13.1876 41.0678 17.7555 46.3625 22.3218C46.452 22.3987 46.5538 22.4611 46.7104 22.5736C46.7104 21.5597 46.7216 20.6194 46.6981 19.6769C46.6981 19.5454 46.546 19.395 46.4296 19.2937C43.8091 17.0224 41.1863 14.7529 38.5613 12.4854C38.4193 12.3628 38.2258 12.1879 38.2258 12.0397C38.2268 11.7894 38.3168 11.5475 38.4797 11.3568C38.7112 11.1284 39.0256 11.1997 39.275 11.4125C39.9641 12 40.6509 12.5894 41.3355 13.1806C43.4139 14.9732 45.4867 16.7713 47.5706 18.555C47.7121 18.6647 47.8246 18.807 47.8987 18.9696C47.9727 19.1323 48.006 19.3104 47.9957 19.4886C47.9756 20.937 47.9834 22.3786 47.9957 23.8247C47.9957 24.1489 47.9644 24.4375 47.6333 24.5979C47.2809 24.7695 47.0236 24.5923 46.7697 24.3751C43.7562 21.7718 40.7411 19.1685 37.7246 16.5652L26.8741 7.20675C26.7813 7.12542 26.6806 7.053 26.5497 6.94939C25.7443 7.64162 24.9434 8.33088 24.1469 9.01717L6.36216 24.3539C5.82635 24.8163 5.53663 24.7873 5.11603 24.2514V18.9973Z" fill="white"/>
<path d="M41.1107 42.0526V22.0177C41.1107 21.3403 41.3031 21.0462 41.7438 21.044C42.1846 21.0417 42.3826 21.3403 42.3826 22.0132V42.4013C42.3826 43.2012 42.2338 43.3483 41.4351 43.3483H11.6286C10.8836 43.3483 10.7192 43.1868 10.7192 42.447V21.933C10.7117 21.8081 10.7165 21.6827 10.7337 21.5587C10.753 21.4115 10.8278 21.2771 10.9428 21.1828C11.0579 21.0884 11.2047 21.0412 11.3534 21.0506C11.5023 21.0395 11.6498 21.0858 11.7654 21.1799C11.8809 21.2741 11.9557 21.4089 11.9743 21.5564C11.9936 21.724 11.9981 21.8928 11.9877 22.0611V42.0493L41.1107 42.0526Z" fill="white"/>
<path d="M17.7273 4.91708H12.2461V5.4006C12.2461 7.5679 12.2461 9.73557 12.2461 11.9036C12.2461 12.3771 12.0671 12.6189 11.7103 12.6668C11.2964 12.7236 10.9865 12.4607 10.9776 12.0217C10.9675 11.4947 10.9776 10.9655 10.9776 10.4386C10.9776 8.43764 10.9776 6.43672 10.9776 4.43579C10.9776 3.84308 11.1801 3.62917 11.7763 3.62695C13.9389 3.62175 16.1016 3.62175 18.2642 3.62695C18.8235 3.62695 19.0372 3.84977 19.0472 4.41685C19.0551 4.88923 19.0562 5.36161 19.0472 5.83399C19.0372 6.33199 18.8112 6.58712 18.404 6.58712C17.9969 6.58712 17.7709 6.31194 17.7653 5.83064C17.7653 5.5666 17.7653 5.30256 17.7653 5.03963C17.7554 4.99797 17.7427 4.95702 17.7273 4.91708Z" fill="white"/>
<path d="M9.50779 34.4274C9.50779 34.4274 9.50779 34.4207 9.50779 34.4173C9.50779 34.414 9.50779 34.3917 9.50779 34.3795C9.50722 34.3593 9.50497 34.3391 9.50108 34.3193C9.49833 34.3018 9.49383 34.2846 9.48766 34.268C9.48377 34.2501 9.47814 34.2326 9.47088 34.2157C9.46381 34.1981 9.45559 34.181 9.44627 34.1644C9.43893 34.1491 9.43071 34.1342 9.42166 34.1199C9.40997 34.1024 9.39727 34.0857 9.38362 34.0697C9.37579 34.0597 9.36909 34.0497 9.36014 34.0397L6.79628 31.3212C6.74599 31.2679 6.68562 31.2249 6.61865 31.1948C6.55167 31.1647 6.4794 31.1481 6.40595 31.1458C6.33251 31.1435 6.25933 31.1557 6.19061 31.1816C6.12188 31.2075 6.05896 31.2466 6.00543 31.2967C5.95186 31.3468 5.90873 31.4069 5.8785 31.4737C5.84827 31.5404 5.83154 31.6123 5.82925 31.6855C5.82697 31.7586 5.83918 31.8315 5.86518 31.9C5.89119 31.9684 5.93048 32.0311 5.98081 32.0844L7.66544 33.8703L0.876596 33.9193C0.728259 33.9193 0.585999 33.978 0.481109 34.0825C0.376219 34.187 0.317291 34.3286 0.317291 34.4764C0.317291 34.6241 0.376219 34.7658 0.481109 34.8703C0.585999 34.9747 0.728259 35.0334 0.876596 35.0334L7.66656 34.9844L5.96851 36.7837C5.91818 36.837 5.87888 36.8997 5.85287 36.9681C5.82687 37.0366 5.81466 37.1095 5.81695 37.1826C5.81923 37.2558 5.83597 37.3277 5.86619 37.3944C5.89642 37.4611 5.93955 37.5213 5.99312 37.5714C6.09666 37.6685 6.23346 37.7227 6.37569 37.7229C6.45221 37.7229 6.52793 37.7073 6.59816 37.677C6.66839 37.6468 6.73163 37.6024 6.78397 37.5468L9.34783 34.8284C9.44653 34.7235 9.50064 34.5845 9.49884 34.4407C9.49884 34.4407 9.49884 34.4352 9.49884 34.4329C9.49884 34.4307 9.50779 34.4274 9.50779 34.4274Z" fill="white"/>
<path d="M39.3936 26.8418C39.3936 26.8418 39.3936 26.8352 39.3936 26.8318C39.3936 26.8285 39.3936 26.8062 39.3936 26.7928C39.393 26.7726 39.3908 26.7525 39.3869 26.7327C39.3834 26.7153 39.3789 26.6982 39.3735 26.6814C39.3735 26.6647 39.3634 26.6469 39.3567 26.629C39.3494 26.6119 39.3412 26.5952 39.3321 26.5789C39.3243 26.5633 39.3164 26.5477 39.3075 26.5332C39.2958 26.5162 39.2831 26.4998 39.2695 26.4842C39.2623 26.4737 39.2544 26.4637 39.246 26.4541L36.6788 23.7324C36.6285 23.679 36.5681 23.6361 36.5011 23.606C36.4341 23.5759 36.3619 23.5592 36.2884 23.5569C36.215 23.5546 36.1418 23.5668 36.0731 23.5927C36.0044 23.6186 35.9414 23.6577 35.8879 23.7079C35.8343 23.758 35.7912 23.8181 35.761 23.8848C35.7307 23.9515 35.714 24.0235 35.7117 24.0966C35.7094 24.1698 35.7217 24.2426 35.7477 24.3111C35.7737 24.3795 35.813 24.4422 35.8633 24.4955L37.5513 26.2848L30.7624 26.3338C30.6141 26.3338 30.4718 26.3925 30.3669 26.497C30.2621 26.6014 30.2031 26.7431 30.2031 26.8909C30.2031 27.0386 30.2621 27.1803 30.3669 27.2848C30.4718 27.3892 30.6141 27.4479 30.7624 27.4479L37.5535 27.3989L35.8555 29.1982C35.8051 29.2515 35.7658 29.3142 35.7398 29.3826C35.7138 29.451 35.7016 29.5239 35.7039 29.5971C35.7062 29.6702 35.7229 29.7422 35.7531 29.8089C35.7834 29.8756 35.8265 29.9357 35.8801 29.9858C35.9838 30.0825 36.1206 30.1363 36.2626 30.1362C36.3391 30.1364 36.4148 30.121 36.485 30.0909C36.5552 30.0608 36.6185 30.0167 36.6709 29.9613L39.2348 27.2429C39.3335 27.1379 39.3876 26.999 39.3858 26.8552V26.8385L39.3936 26.8418Z" fill="white"/>
<path d="M52.1323 33.9173L45.3435 33.8683L47.0315 32.079C47.0818 32.0257 47.1211 31.963 47.1471 31.8946C47.1731 31.8261 47.1853 31.7533 47.183 31.6801C47.1808 31.607 47.164 31.535 47.1338 31.4683C47.1036 31.4016 47.0604 31.3415 47.0069 31.2914C46.9533 31.2412 46.8904 31.2021 46.8217 31.1762C46.753 31.1503 46.6798 31.1381 46.6063 31.1404C46.5329 31.1427 46.4606 31.1594 46.3936 31.1895C46.3267 31.2196 46.2663 31.2625 46.216 31.3159L43.6522 34.0343C43.64 34.048 43.6288 34.0625 43.6186 34.0777C43.6094 34.0884 43.6008 34.0995 43.5929 34.1112C43.5817 34.129 43.5727 34.1468 43.5627 34.1646C43.5526 34.1825 43.5481 34.1936 43.5414 34.2092C43.5347 34.2248 43.5291 34.2449 43.5235 34.2627C43.5182 34.2795 43.5141 34.2966 43.5112 34.3139C43.5073 34.3338 43.5051 34.3539 43.5045 34.3741C43.5045 34.3863 43.5045 34.3986 43.5045 34.412C43.5045 34.4253 43.5045 34.4187 43.5045 34.422C43.5045 34.4253 43.5045 34.422 43.5045 34.4309C43.5045 34.4398 43.5045 34.4365 43.5045 34.4387C43.5027 34.5825 43.5568 34.7214 43.6555 34.8264L46.2171 37.5471C46.2695 37.6027 46.3327 37.647 46.4029 37.6772C46.4732 37.7075 46.5489 37.7231 46.6254 37.7231C46.7676 37.7229 46.9044 37.6687 47.008 37.5716C47.0616 37.5215 47.1047 37.4613 47.1349 37.3946C47.1651 37.3279 47.1819 37.256 47.1842 37.1828C47.1864 37.1097 47.1742 37.0368 47.1482 36.9683C47.1222 36.8999 47.0829 36.8372 47.0326 36.7839L45.3334 34.9846L52.1234 35.0336C52.2717 35.0336 52.414 34.9749 52.5189 34.8705C52.6238 34.766 52.6827 34.6243 52.6827 34.4766C52.6833 34.33 52.6259 34.1891 52.5228 34.0844C52.4198 33.9797 52.2795 33.9196 52.1323 33.9173Z" fill="white"/>
<path d="M22.2464 26.3372L15.4576 26.2882L17.1456 24.499C17.1959 24.4456 17.2352 24.383 17.2612 24.3145C17.2872 24.2461 17.2994 24.1732 17.2971 24.1C17.2949 24.0269 17.2781 23.9549 17.2479 23.8882C17.2177 23.8215 17.1745 23.7614 17.121 23.7113C17.0674 23.6611 17.0045 23.622 16.9358 23.5961C16.8671 23.5702 16.7939 23.5581 16.7204 23.5603C16.647 23.5626 16.5747 23.5793 16.5078 23.6094C16.4408 23.6395 16.3804 23.6824 16.3301 23.7358L13.7663 26.4542C13.7528 26.4676 13.7439 26.4832 13.7327 26.4965C13.7215 26.5099 13.7148 26.5188 13.707 26.5311C13.6962 26.5479 13.6865 26.5654 13.6779 26.5834C13.6701 26.599 13.6622 26.6135 13.6555 26.6291C13.6487 26.6466 13.6431 26.6644 13.6387 26.6826C13.6332 26.699 13.6287 26.7158 13.6253 26.7327C13.6214 26.7526 13.6192 26.7727 13.6186 26.7929C13.6186 26.8063 13.6186 26.8185 13.6186 26.8319C13.6186 26.8453 13.6186 26.8386 13.6186 26.8419V26.8586C13.6168 27.0024 13.6709 27.1414 13.7696 27.2463L16.3335 29.9647C16.3859 30.0201 16.4492 30.0642 16.5194 30.0943C16.5896 30.1244 16.6653 30.1398 16.7418 30.1397C16.8838 30.1397 17.0206 30.086 17.1243 29.9893C17.1779 29.9392 17.221 29.879 17.2513 29.8123C17.2815 29.7456 17.2982 29.6736 17.3005 29.6005C17.3028 29.5273 17.2906 29.4545 17.2646 29.386C17.2386 29.3176 17.1993 29.2549 17.1489 29.2016L15.4509 27.4023L22.242 27.4513C22.3903 27.4513 22.5326 27.3926 22.6375 27.2882C22.7423 27.1837 22.8013 27.042 22.8013 26.8943C22.8013 26.7473 22.743 26.6063 22.639 26.5019C22.5351 26.3976 22.394 26.3384 22.2464 26.3372Z" fill="white"/>
</svg>
