<svg width="133" height="29" viewBox="0 0 133 29" fill="none" xmlns="http://www.w3.org/2000/svg">
<path d="M6.38477 8.8125V14.6094H7.42383C8.41732 14.6094 9.1237 14.3861 9.54297 13.9395C9.97135 13.4837 10.1855 12.7272 10.1855 11.6699C10.1855 10.64 9.97135 9.90625 9.54297 9.46875C9.11458 9.03125 8.37174 8.8125 7.31445 8.8125H6.38477ZM1.92773 5.57227H6.78125C8.09375 5.57227 9.1237 5.64062 9.87109 5.77734C10.6276 5.90495 11.2565 6.11458 11.7578 6.40625C12.6693 6.9349 13.3574 7.65495 13.8223 8.56641C14.2962 9.47786 14.5332 10.5488 14.5332 11.7793C14.5332 13.8118 13.9408 15.3385 12.7559 16.3594C11.571 17.3802 9.80273 17.8906 7.45117 17.8906H6.38477V25H1.92773V5.57227Z" fill="#0B3D86"/>
<path d="M24.0762 18.1914C23.903 18.1732 23.7207 18.1595 23.5293 18.1504C23.347 18.1413 23.11 18.1367 22.8184 18.1367C21.8066 18.1367 21.041 18.3327 20.5215 18.7246C20.002 19.1165 19.7422 19.6862 19.7422 20.4336C19.7422 21.0352 19.9108 21.5091 20.248 21.8555C20.5853 22.1927 21.0501 22.3613 21.6426 22.3613C22.472 22.3613 23.0827 22.0924 23.4746 21.5547C23.8757 21.0078 24.0762 20.1602 24.0762 19.0117V18.1914ZM28.2188 16.6875V22.0332C28.2188 22.6621 28.2324 23.209 28.2598 23.6738C28.2871 24.1387 28.3327 24.5807 28.3965 25H24.418L24.2539 23.127C23.6888 23.8561 23.0462 24.403 22.3262 24.7676C21.6152 25.1322 20.8268 25.3145 19.9609 25.3145C18.7031 25.3145 17.6868 24.9043 16.9121 24.084C16.1465 23.2637 15.7637 22.1882 15.7637 20.8574C15.7637 19.2441 16.3561 18.0046 17.541 17.1387C18.7259 16.2728 20.4303 15.8398 22.6543 15.8398H24.0762V15.4297C24.0762 14.6549 23.8392 14.0716 23.3652 13.6797C22.8913 13.2786 22.194 13.0781 21.2734 13.0781C20.6172 13.0781 19.9609 13.1921 19.3047 13.4199C18.6576 13.6478 18.056 13.9805 17.5 14.418L17.2812 11.1914C18.1745 10.8633 19.0358 10.6172 19.8652 10.4531C20.7038 10.2799 21.5104 10.1934 22.2852 10.1934C24.4909 10.1934 26.0312 10.6536 26.9062 11.5742C27.7812 12.4948 28.2188 14.1992 28.2188 16.6875Z" fill="#EE7601"/>
<path d="M31.541 10.4941H35.7656V25H31.541V10.4941ZM31.541 4.24609H35.7656V8.0332H31.541V4.24609Z" fill="#0065B1"/>
<path d="M51.2695 15.0879V25H47.0039V16.0449C47.0039 15.252 46.8717 14.6732 46.6074 14.3086C46.3522 13.9349 45.9466 13.748 45.3906 13.748C44.7617 13.748 44.2786 14.0033 43.9414 14.5137C43.6133 15.0241 43.4492 15.7669 43.4492 16.7422V25H39.1973V13.6387C39.1973 12.8001 39.1836 12.1621 39.1562 11.7246C39.138 11.2871 39.1061 10.877 39.0605 10.4941H42.9434C42.998 10.9316 43.0345 11.3327 43.0527 11.6973C43.0801 12.0527 43.0938 12.39 43.0938 12.709C43.4219 11.9251 43.946 11.3099 44.666 10.8633C45.3952 10.4167 46.2246 10.1934 47.1543 10.1934C48.4941 10.1934 49.515 10.6081 50.2168 11.4375C50.9186 12.2669 51.2695 13.4837 51.2695 15.0879Z" fill="#008E3D"/>
<path d="M59.3223 6.24219V10.4941H62.0977V13.4883H59.3223V19.5449C59.3223 20.6113 59.4408 21.3132 59.6777 21.6504C59.9147 21.9785 60.3385 22.1426 60.9492 22.1426C61.1133 22.1426 61.3047 22.1243 61.5234 22.0879C61.7422 22.0514 62.0065 21.9967 62.3164 21.9238V24.9727C61.806 25.0729 61.3229 25.1458 60.8672 25.1914C60.4115 25.2461 59.9831 25.2734 59.582 25.2734C57.9323 25.2734 56.7702 24.9089 56.0957 24.1797C55.4303 23.4414 55.0977 21.9785 55.0977 19.791V13.4883H52.7188V10.4941H55.0977V7.55469L59.3223 6.24219Z" fill="#903189"/>
<path d="M67.9355 18.9023C68.0449 20.0508 68.3913 20.9121 68.9746 21.4863C69.5671 22.0514 70.3965 22.334 71.4629 22.334C72.0918 22.334 72.7207 22.2428 73.3496 22.0605C73.9785 21.8783 74.6211 21.6003 75.2773 21.2266L75.4141 24.3301C74.694 24.6491 73.9466 24.8906 73.1719 25.0547C72.3971 25.2279 71.6315 25.3145 70.875 25.3145C68.5964 25.3145 66.8281 24.6628 65.5703 23.3594C64.3125 22.0469 63.6836 20.2057 63.6836 17.8359C63.6836 15.5482 64.2533 13.7025 65.3926 12.2988C66.541 10.8952 68.0404 10.1934 69.8906 10.1934C71.8685 10.1934 73.4043 10.8678 74.498 12.2168C75.5918 13.5658 76.1387 15.4753 76.1387 17.9453C76.1387 18.2005 76.1341 18.3919 76.125 18.5195C76.125 18.6471 76.1204 18.7702 76.1113 18.8887L67.9355 18.9023ZM72.1875 16.5508C72.1875 16.4049 72.1921 16.2637 72.2012 16.127C72.2103 15.9811 72.2148 15.9036 72.2148 15.8945C72.2148 15.0013 72.0371 14.3086 71.6816 13.8164C71.3262 13.3242 70.8249 13.0781 70.1777 13.0781C69.4486 13.0781 68.8971 13.3561 68.5234 13.9121C68.1497 14.4681 67.9264 15.3477 67.8535 16.5508H72.1875ZM87.1582 10.248V14.1309C87.1309 14.1309 87.0762 14.1217 86.9941 14.1035C86.584 14.0124 86.3014 13.9668 86.1465 13.9668C85.0892 13.9668 84.3145 14.2904 83.8223 14.9375C83.3392 15.5755 83.0977 16.6055 83.0977 18.0273V25H78.8457V13.6387C78.8457 12.8001 78.832 12.1621 78.8047 11.7246C78.7865 11.2871 78.7546 10.877 78.709 10.4941H82.5918C82.6009 10.5306 82.6055 10.5807 82.6055 10.6445C82.6784 11.5195 82.7148 12.1621 82.7148 12.5723V13.0098C83.0247 12.1439 83.5169 11.4603 84.1914 10.959C84.8659 10.4486 85.6133 10.1934 86.4336 10.1934C86.5885 10.1934 86.8073 10.207 87.0898 10.2344C87.1172 10.2435 87.14 10.248 87.1582 10.248ZM92.4355 18.9023C92.5449 20.0508 92.8913 20.9121 93.4746 21.4863C94.0671 22.0514 94.8965 22.334 95.9629 22.334C96.5918 22.334 97.2207 22.2428 97.8496 22.0605C98.4785 21.8783 99.1211 21.6003 99.7773 21.2266L99.9141 24.3301C99.194 24.6491 98.4466 24.8906 97.6719 25.0547C96.8971 25.2279 96.1315 25.3145 95.375 25.3145C93.0964 25.3145 91.3281 24.6628 90.0703 23.3594C88.8125 22.0469 88.1836 20.2057 88.1836 17.8359C88.1836 15.5482 88.7533 13.7025 89.8926 12.2988C91.041 10.8952 92.5404 10.1934 94.3906 10.1934C96.3685 10.1934 97.9043 10.8678 98.998 12.2168C100.092 13.5658 100.639 15.4753 100.639 17.9453C100.639 18.2005 100.634 18.3919 100.625 18.5195C100.625 18.6471 100.62 18.7702 100.611 18.8887L92.4355 18.9023ZM96.6875 16.5508C96.6875 16.4049 96.6921 16.2637 96.7012 16.127C96.7103 15.9811 96.7148 15.9036 96.7148 15.8945C96.7148 15.0013 96.5371 14.3086 96.1816 13.8164C95.8262 13.3242 95.3249 13.0781 94.6777 13.0781C93.9486 13.0781 93.3971 13.3561 93.0234 13.9121C92.6497 14.4681 92.4264 15.3477 92.3535 16.5508H96.6875ZM111.863 10.8086L111.795 13.9668C111.248 13.6751 110.706 13.4609 110.168 13.3242C109.639 13.1784 109.111 13.1055 108.582 13.1055C107.935 13.1055 107.447 13.2194 107.119 13.4473C106.791 13.6751 106.627 14.0169 106.627 14.4727C106.627 15.0286 107.315 15.5801 108.691 16.127C110.414 16.8105 111.508 17.4622 111.973 18.082C112.438 18.6927 112.67 19.554 112.67 20.666C112.67 22.1517 112.155 23.3047 111.125 24.125C110.104 24.9362 108.65 25.3418 106.764 25.3418C106.18 25.3418 105.556 25.2826 104.891 25.1641C104.225 25.0547 103.533 24.8861 102.812 24.6582L102.84 21.2266C103.469 21.6094 104.116 21.9056 104.781 22.1152C105.447 22.3249 106.098 22.4297 106.736 22.4297C107.402 22.4297 107.921 22.3021 108.295 22.0469C108.669 21.7826 108.855 21.4225 108.855 20.9668C108.855 20.4017 108.195 19.8639 106.873 19.3535C106.609 19.2533 106.404 19.1758 106.258 19.1211C104.918 18.5833 103.984 18.0091 103.455 17.3984C102.936 16.7786 102.676 15.9811 102.676 15.0059C102.676 13.502 103.15 12.3307 104.098 11.4922C105.055 10.6445 106.381 10.2207 108.076 10.2207C108.696 10.2207 109.325 10.2708 109.963 10.3711C110.601 10.4622 111.234 10.6081 111.863 10.8086ZM120.135 6.24219V10.4941H122.91V13.4883H120.135V19.5449C120.135 20.6113 120.253 21.3132 120.49 21.6504C120.727 21.9785 121.151 22.1426 121.762 22.1426C121.926 22.1426 122.117 22.1243 122.336 22.0879C122.555 22.0514 122.819 21.9967 123.129 21.9238V24.9727C122.618 25.0729 122.135 25.1458 121.68 25.1914C121.224 25.2461 120.796 25.2734 120.395 25.2734C118.745 25.2734 117.583 24.9089 116.908 24.1797C116.243 23.4414 115.91 21.9785 115.91 19.791V13.4883H113.531V10.4941H115.91V7.55469L120.135 6.24219Z" fill="#FF3F4A"/>
<path d="M126.982 3.09616V3.91346H125.454V8H124.528V3.91346H123V3.09616H126.982ZM132.074 7.95192L131.889 5.0673C131.889 4.68269 131.889 4.20192 131.843 3.72115H131.796C131.657 4.15385 131.519 4.73077 131.38 5.16346L130.546 7.85577H129.574L128.741 5.0673C128.648 4.68269 128.509 4.10577 128.417 3.67307H128.37C128.37 4.10577 128.37 4.58655 128.324 5.01924L128.139 7.90385H127.259L127.583 3H128.972L129.806 5.40385C129.898 5.78846 129.991 6.125 130.13 6.65385C130.268 6.22116 130.361 5.78847 130.454 5.45193L131.287 3.04808H132.63L133 7.95192H132.074Z" fill="#FF3F4A"/>
</svg>
