<svg width="135" height="25" viewBox="0 0 135 25" fill="none" xmlns="http://www.w3.org/2000/svg">
<path d="M129.566 0V0.661714H128.216V4H127.372V0.661714H126V0H129.566ZM134.188 4L134.029 1.63951C134.029 1.33334 134.029 0.94815 134.029 0.523457H133.977C133.871 0.879014 133.744 1.35308 133.618 1.71851L132.848 3.94074H131.972L131.202 1.65926L130.896 0.523457C130.896 0.88889 130.896 1.27408 130.896 1.63951L130.737 4H129.925L130.231 0H131.381L132.12 1.97531C132.215 2.28149 132.288 2.57779 132.404 2.96297C132.521 2.59754 132.615 2.26174 132.71 1.97531L133.449 0H134.673L135 4H134.188Z" fill="white"/>
<path d="M0 4.08566H5.11027C6.2014 4.06806 7.29218 4.13817 8.37214 4.29532C9.06606 4.40456 9.73638 4.63143 10.3544 4.96624C11.2825 5.5016 12.0374 6.2935 12.5289 7.24739C13.0484 8.3022 13.3038 9.46798 13.2733 10.644C13.3395 11.5382 13.2056 12.436 12.8814 13.2718C12.5573 14.1075 12.0511 14.8601 11.3998 15.4746C10.1508 16.5593 8.2913 17.0988 5.8212 17.0933H4.69208V24.5992H0V4.08566ZM4.69208 7.50737V13.6296H5.78774C6.19005 13.6696 6.59628 13.627 6.98164 13.5044C7.36701 13.3819 7.72345 13.1819 8.02924 12.9167C8.53914 12.2303 8.77748 11.3788 8.69833 10.5265C8.79567 10.1087 8.78484 9.67293 8.66687 9.2605C8.54889 8.84807 8.3277 8.47275 8.0243 8.1702C7.72089 7.86765 7.34537 7.64793 6.93342 7.53192C6.52146 7.41591 6.08677 7.40745 5.67064 7.50737H4.69208Z" fill="white"/>
<path d="M26.889 15.827V21.4712C26.889 22.1337 26.889 22.7124 26.889 23.1988C26.889 23.6852 26.9726 24.1549 27.0396 24.5994H22.8577L22.682 22.6202C22.1444 23.3425 21.4529 23.9355 20.658 24.3562C19.8806 24.7496 19.0196 24.9482 18.1488 24.9348C17.5534 24.9596 16.9595 24.8564 16.407 24.6322C15.8545 24.408 15.3562 24.068 14.9455 23.6349C14.1085 22.7047 13.6699 21.4817 13.7244 20.23C13.6869 19.47 13.8384 18.7126 14.1655 18.0259C14.4925 17.3393 14.9848 16.745 15.5979 16.2967C17.2055 15.2849 19.0901 14.8066 20.9842 14.9296H22.4813V14.4936C22.5046 14.1476 22.4489 13.8008 22.3184 13.4796C22.188 13.1585 21.9863 12.8714 21.7285 12.6401C21.0918 12.1778 20.313 11.9551 19.5289 12.0111C18.8251 12.0158 18.127 12.1377 17.463 12.3717C16.7741 12.6171 16.1299 12.9741 15.5561 13.4284L15.3219 10.0235C16.2113 9.68864 17.1258 9.42504 18.0568 9.23515C18.8825 9.06393 19.7229 8.97407 20.566 8.9668C22.8911 8.9668 24.5137 9.45321 25.4337 10.4261C26.429 11.3989 26.889 13.1936 26.889 15.827ZM22.5315 17.4121L21.9627 17.3701H21.2016C20.3506 17.3137 19.5038 17.5311 18.7845 17.9907C18.5088 18.1999 18.2884 18.4736 18.1426 18.788C17.9968 19.1023 17.93 19.4477 17.9481 19.7939C17.9318 20.0661 17.9709 20.3388 18.0629 20.5954C18.1549 20.852 18.298 21.0872 18.4834 21.2867C18.6773 21.473 18.9072 21.6175 19.1589 21.7112C19.4107 21.805 19.6789 21.846 19.9471 21.8318C20.3143 21.8628 20.6835 21.8024 21.022 21.6561C21.3605 21.5099 21.6577 21.2821 21.8875 20.9932C22.366 20.1842 22.585 19.2473 22.5147 18.3094L22.5315 17.4121Z" fill="white"/>
<path d="M30.3775 2.68652H34.827V6.68694H30.3775V2.68652ZM30.3775 9.28679H34.827V24.6007H30.3775V9.28679Z" fill="white"/>
<path d="M51.1357 14.1334V24.5999H46.6443V15.1482C46.6869 14.5065 46.5446 13.866 46.2345 13.3031C46.0835 13.1061 45.8858 12.95 45.6595 12.849C45.4331 12.7479 45.1851 12.7051 44.9381 12.7245C44.6335 12.7127 44.3315 12.7846 44.0647 12.9324C43.7979 13.0802 43.5764 13.2983 43.4242 13.5631C43.0287 14.2824 42.8459 15.0999 42.8973 15.9197V24.6334H38.4227V12.6406C38.4227 11.7516 38.4227 11.0807 38.4227 10.6194C38.4227 10.1582 38.3558 9.72206 38.314 9.3195H42.3955C42.454 9.78076 42.4959 10.2001 42.5209 10.5859C42.546 10.9717 42.5209 11.3239 42.5209 11.6594C42.8603 10.8482 43.4455 10.1646 44.1937 9.7053C44.9826 9.22754 45.8901 8.98329 46.8116 9.00081C47.4127 8.96109 48.015 9.05901 48.5729 9.28712C49.1308 9.51524 49.6296 9.86758 50.0316 10.3175C50.8346 11.4202 51.2254 12.771 51.1357 14.1334Z" fill="white"/>
<path d="M59.6101 4.76562V9.25245H62.5374V12.4142H59.6101V18.8048C59.5359 19.566 59.6658 20.3332 59.9865 21.0272C60.1515 21.2153 60.3593 21.3607 60.5922 21.4512C60.8251 21.5417 61.0764 21.5746 61.3247 21.5472C61.5268 21.5459 61.7283 21.5262 61.9269 21.4885C62.161 21.4885 62.437 21.3962 62.7632 21.3207V24.5412C62.228 24.6418 61.7178 24.7257 61.241 24.776C60.7911 24.8269 60.3389 24.8549 59.8861 24.8599C58.1464 24.8599 56.9253 24.4657 56.2228 23.6941C55.5202 22.9226 55.1606 21.3794 55.1606 19.0647V12.4142H52.6514V9.25245H55.1606V6.14941L59.6101 4.76562Z" fill="white"/>
<path d="M68.6664 18.1844C68.6961 19.194 69.0881 20.1588 69.7704 20.9017C70.1243 21.2173 70.5373 21.4592 70.9853 21.6132C71.4333 21.7673 71.9073 21.8305 72.3799 21.7991C73.0508 21.7991 73.7183 21.7031 74.3621 21.5139C75.0719 21.3018 75.7541 21.0062 76.3945 20.6333L76.5367 23.9125C75.7793 24.2509 74.9889 24.5095 74.1781 24.684C73.3841 24.8589 72.5739 24.9489 71.761 24.9524C70.7374 25.014 69.7123 24.8617 68.7505 24.5051C67.7887 24.1485 66.9114 23.5954 66.174 22.8809C64.7715 21.2768 64.0589 19.1814 64.1918 17.0523C64.0856 14.9431 64.7254 12.8641 65.9984 11.1816C66.5609 10.4699 67.2805 9.8988 68.1005 9.51316C68.9204 9.12752 69.8184 8.93791 70.7239 8.95921C71.6432 8.90807 72.5616 9.07508 73.4045 9.44667C74.2474 9.81825 74.991 10.3839 75.5749 11.0978C76.7291 12.5235 77.2978 14.5363 77.2978 17.1445V17.7484V18.1425L68.6664 18.1844ZM73.141 15.6685C73.141 15.5175 73.141 15.3665 73.141 15.2156C73.141 15.0646 73.141 14.9892 73.141 14.9808C73.187 14.2066 72.9879 13.4376 72.5723 12.7835C72.396 12.5302 72.1585 12.3257 71.8821 12.1894C71.6057 12.053 71.2993 11.989 70.9915 12.0035C70.6501 11.9852 70.3098 12.0568 70.0046 12.2113C69.6994 12.3658 69.4398 12.5978 69.2519 12.8841C68.7863 13.7376 68.5446 14.6957 68.5493 15.6685H73.141Z" fill="white"/>
<path d="M88.8901 9.02509V13.1513H88.7145C88.4236 13.0785 88.127 13.0308 87.8279 13.0087C87.3688 12.9694 86.9069 13.0419 86.4817 13.22C86.0564 13.3982 85.6805 13.6767 85.3857 14.0319C84.7895 15.0095 84.52 16.1524 84.6162 17.2943V24.6577H80.1416V12.6649C80.1416 11.7759 80.1416 11.105 80.0998 10.6437C80.0579 10.1825 80.0412 9.74634 79.9911 9.34378H84.0558C84.0613 9.39676 84.0613 9.45016 84.0558 9.50313C84.1311 10.4257 84.1729 11.105 84.1729 11.5411V12.0023C84.458 11.1267 85.0003 10.3579 85.7286 9.79667C86.4016 9.25904 87.2351 8.96368 88.0955 8.95801C88.2545 8.95801 88.4886 8.958 88.7814 8.99993L88.8901 9.02509Z" fill="white"/>
<path d="M94.4357 18.1844C94.4631 19.1929 94.8521 20.1576 95.5314 20.9017C95.8868 21.2175 96.3012 21.4595 96.7506 21.6136C97.2 21.7676 97.6754 21.8307 98.1493 21.7991C98.8202 21.7991 99.4876 21.7031 100.131 21.5139C100.841 21.3002 101.523 21.0047 102.164 20.6333L102.306 23.9125C101.548 24.2484 100.758 24.5069 99.9475 24.684C99.1535 24.8589 98.3432 24.9489 97.5303 24.9524C96.5068 25.014 95.4816 24.8617 94.5198 24.5051C93.5581 24.1485 92.6807 23.5954 91.9433 22.8809C91.2458 22.0882 90.7109 21.1654 90.3694 20.1653C90.0278 19.1652 89.8862 18.1073 89.9527 17.0523C89.8466 14.9431 90.4864 12.8641 91.7593 11.1816C92.3228 10.4688 93.0437 9.89698 93.8652 9.51129C94.6867 9.1256 95.5864 8.9366 96.4932 8.95921C97.4126 8.90807 98.331 9.07508 99.1738 9.44667C100.017 9.81825 100.76 10.3839 101.344 11.0978C102.493 12.5235 103.067 14.5391 103.067 17.1445C103.067 17.4129 103.067 17.6142 103.067 17.7484C103.067 17.8825 103.067 18.0167 103.067 18.1425L94.4357 18.1844ZM98.9104 15.6685C98.902 15.5176 98.902 15.3664 98.9104 15.2156C98.9104 15.0646 98.9104 14.9892 98.9104 14.9808C98.9588 14.2075 98.7627 13.4385 98.35 12.7835C98.1726 12.5313 97.9349 12.3277 97.6588 12.1915C97.3826 12.0552 97.0768 11.9906 96.7692 12.0035C96.4278 11.9852 96.0876 12.0568 95.7823 12.2113C95.4771 12.3658 95.2176 12.5978 95.0296 12.8841C94.5569 13.7352 94.312 14.6944 94.3186 15.6685H98.9104Z" fill="white"/>
<path d="M114.868 9.62162L114.801 12.9763C114.272 12.6844 113.71 12.4537 113.129 12.2885C112.582 12.1467 112.02 12.0734 111.456 12.0705C110.919 12.0342 110.383 12.1598 109.917 12.4311C109.746 12.5522 109.608 12.7151 109.518 12.9045C109.427 13.0938 109.386 13.3033 109.398 13.513C109.398 14.1 110.126 14.6787 111.573 15.2574C113.385 15.9786 114.537 16.6635 115.027 17.3121C115.563 18.1189 115.821 19.0788 115.763 20.0461C115.799 20.7395 115.671 21.4316 115.389 22.0658C115.107 22.6999 114.679 23.258 114.141 23.6943C112.801 24.6359 111.181 25.0914 109.549 24.9858C108.887 24.9822 108.227 24.9233 107.575 24.8097C106.833 24.6767 106.101 24.4946 105.384 24.2646V20.6416C106.023 21.0377 106.708 21.3531 107.425 21.5809C108.09 21.7956 108.783 21.9088 109.482 21.9164C110.07 21.9558 110.655 21.8091 111.155 21.497C111.343 21.3763 111.497 21.2083 111.601 21.0098C111.705 20.8113 111.756 20.589 111.749 20.3648C111.749 19.7694 111.054 19.2075 109.658 18.6875L109.014 18.4443C107.904 18.0726 106.896 17.4466 106.07 16.616C105.493 15.9083 105.195 15.0131 105.233 14.1001C105.196 13.4078 105.311 12.7158 105.571 12.0735C105.832 11.4313 106.23 10.8546 106.739 10.3848C107.919 9.43457 109.41 8.95916 110.921 9.05131C111.584 9.05228 112.247 9.10276 112.903 9.20229C113.569 9.28645 114.226 9.42673 114.868 9.62162Z" fill="white"/>
<path d="M123.566 4.76562V9.25245H126.485V12.4142H123.566V18.8048C123.492 19.566 123.622 20.3332 123.943 21.0272C124.108 21.2153 124.316 21.3607 124.549 21.4512C124.782 21.5417 125.033 21.5746 125.281 21.5472C125.479 21.562 125.678 21.5592 125.875 21.5388C126.109 21.5388 126.385 21.4465 126.711 21.371V24.5915C126.176 24.6922 125.666 24.776 125.189 24.8263C124.739 24.8773 124.287 24.9052 123.834 24.9102C122.094 24.9102 120.873 24.516 120.171 23.7445C119.468 22.9729 119.109 21.4298 119.109 19.1151V12.4645H116.599V9.30277H119.109V6.19972L123.566 4.76562Z" fill="white"/>
</svg>
