<svg width="53" height="44" viewBox="0 0 53 44" fill="none" xmlns="http://www.w3.org/2000/svg">
<path d="M5.15013 32.5397C5.40962 32.2794 5.72036 32.2046 6.08566 32.2046C7.78075 32.2202 9.47583 32.2046 11.1709 32.2191C11.3131 32.2246 11.4547 32.1985 11.5856 32.1427C11.7165 32.0869 11.8335 32.0027 11.9283 31.8963C13.0097 30.8127 14.0833 29.7214 15.2048 28.6803C16.7017 27.2918 18.4759 26.836 20.5095 27.0472C23.021 27.3074 25.5413 27.5509 28.0762 27.3655C28.9671 27.2996 29.8158 27.4191 30.5575 27.9899C31.043 28.3566 31.4049 28.8637 31.5945 29.4428C31.784 30.022 31.7922 30.6455 31.6178 31.2294C31.5788 31.3601 31.5365 31.4897 31.4964 31.6204L31.5777 31.7198C32.0043 31.4159 32.4832 31.1613 32.8496 30.7993C35.077 28.5954 37.2577 26.3523 39.4829 24.1495C40.2608 23.3755 41.0843 22.6488 41.9487 21.9735C42.6917 21.3769 43.6022 21.0284 44.5526 20.9771C46.3346 20.8967 47.7702 22.2282 47.8448 24.0222C47.8731 24.481 47.804 24.9406 47.642 25.3706C47.4799 25.8007 47.2287 26.1912 46.9048 26.5166C42.8212 30.8358 38.7483 35.1625 34.6861 39.4967C33.2706 41.0114 31.5677 41.7386 29.5062 41.7308C21.6834 41.7189 13.8613 41.7189 6.04 41.7308C5.68249 41.7308 5.39515 41.6448 5.14902 41.3957L5.15013 32.5397ZM6.32622 40.559H6.86081C14.3918 40.559 21.9232 40.559 29.455 40.559C31.2069 40.559 32.648 39.9603 33.8564 38.6656C37.9304 34.2991 42.0356 29.9627 46.1274 25.6151C46.7801 24.9214 46.8658 23.9507 46.3502 23.0727C45.9047 22.2907 45.0995 21.9757 44.1617 22.2137C42.96 22.5197 42.0233 23.2615 41.1725 24.1127C38.8481 26.4339 36.5082 28.7406 34.2429 31.1188C32.8496 32.581 31.1712 33.3138 29.2133 33.3529C26.0603 33.4177 22.9063 33.3875 19.7522 33.3965C19.6687 33.3965 19.5617 33.4099 19.5072 33.3652C19.3546 33.2423 19.133 33.1072 19.1062 32.9474C19.0968 32.8425 19.1099 32.7367 19.1447 32.6373C19.1795 32.5379 19.2351 32.4471 19.3078 32.371C19.437 32.2493 19.6887 32.2191 19.8869 32.218C21.4016 32.2068 22.9163 32.218 24.4309 32.2113C25.9044 32.2113 27.3767 32.2258 28.8502 32.1979C29.9639 32.1767 30.7758 31.0641 30.5208 29.9816C30.2847 28.9919 29.465 28.4368 28.3056 28.5295C25.9111 28.7171 23.5333 28.4814 21.151 28.3061C20.2946 28.2413 19.4236 28.1497 18.5772 28.2379C17.3053 28.3697 16.3386 29.164 15.4532 30.0252C14.4364 31.0149 13.4374 32.0247 12.4461 33.0413C12.3346 33.1634 12.1977 33.2594 12.0451 33.3225C11.8925 33.3856 11.7279 33.4143 11.563 33.4065C9.96476 33.3954 8.36657 33.4065 6.77394 33.4065C6.62804 33.4065 6.48214 33.4188 6.32845 33.4255L6.32622 40.559Z" fill="#F6F6F6"/>
<path d="M28.2766 7.56584C28.6753 7.0587 29.0295 6.59511 29.3993 6.14383C29.7189 5.75286 30.0786 5.72381 30.3805 6.10249C32.0355 8.18021 33.6749 10.2669 34.8732 12.6629C35.831 14.5787 35.8667 16.4609 34.7151 18.2951C32.4241 21.9479 27.1195 21.8194 24.9733 18.0617C24.8319 17.8159 24.6916 17.7198 24.4009 17.7265C21.1098 17.7433 18.5059 15.0903 18.6941 11.7961C18.742 10.955 19.104 10.096 19.4737 9.31626C20.4449 7.25306 21.846 5.46243 23.2326 3.66844C23.4108 3.43721 23.5923 3.20821 23.7738 2.98034C24.1525 2.50447 24.5289 2.48436 24.8931 2.96805C25.9445 4.36883 26.9769 5.78414 28.0116 7.19386C28.0951 7.29886 28.1697 7.4128 28.2766 7.56584ZM29.9172 7.3804C29.7468 7.59264 29.6231 7.74233 29.5051 7.89648C28.1976 9.61116 26.8822 11.3247 25.9757 13.2974C25.7073 13.8805 25.4522 14.5262 25.4288 15.1562C25.3175 18.141 28.0962 20.3594 30.9975 19.6512C33.5702 19.0212 35.0737 16.175 34.1382 13.9196C33.128 11.4979 31.5142 9.48158 29.9172 7.3804ZM24.3485 16.5402C24.3177 16.3981 24.2969 16.2541 24.2862 16.1091C24.2862 15.5695 24.2327 15.0177 24.324 14.4927C24.5379 13.2639 25.146 12.196 25.7897 11.1549C26.331 10.2814 26.9157 9.43578 27.5249 8.51086L24.3652 4.1108C22.835 6.09356 21.3738 7.98473 20.3425 10.163C19.9393 11.0164 19.7199 11.8922 19.897 12.8674C20.2556 14.9093 22.2246 16.5883 24.3508 16.5391L24.3485 16.5402Z" fill="#F6F6F6"/>
<path d="M15.2605 6.91232C15.2438 7.25525 15.0322 7.42281 14.6847 7.4809C14.2504 7.55351 13.7937 7.58367 13.3939 7.75122C12.0686 8.30975 11.3825 9.34861 11.2544 10.774C11.2088 11.2755 10.9994 11.5269 10.6463 11.5112C10.2933 11.4956 10.0895 11.2297 10.0728 10.7293C10.0283 9.9104 9.69224 9.13473 9.12563 8.54347C8.55902 7.95221 7.79958 7.58465 6.98553 7.50771C6.84743 7.49654 6.70821 7.48202 6.57234 7.45968C6.2527 7.40717 6.07896 7.2128 6.07339 6.89109C6.06782 6.56938 6.26383 6.37166 6.56677 6.31134C6.85077 6.25549 7.14702 6.26108 7.42879 6.19964C8.15812 6.03444 8.8127 5.63244 9.29096 5.056C9.76923 4.47956 10.0444 3.76092 10.0739 3.01157C10.0928 2.55693 10.2966 2.29331 10.6408 2.26985C10.9003 2.25197 11.2333 2.53347 11.2656 2.95907C11.4115 4.92173 12.6299 6.11363 14.5967 6.28901C15.0199 6.32475 15.2583 6.54034 15.2605 6.91232ZM12.2702 6.88663L10.6708 5.28366L9.05817 6.88998L10.6675 8.49853L12.2702 6.88663Z" fill="#F6F6F6"/>
<path d="M19.4459 21.5367C19.4459 21.9221 19.1942 22.1354 18.7465 22.1645C17.2931 22.2583 16.2606 22.981 15.6949 24.3193C15.5311 24.7058 15.5022 25.1537 15.4309 25.5759C15.3596 25.9982 15.1669 26.1903 14.8239 26.1792C14.4809 26.168 14.2526 25.9267 14.2537 25.5335C14.2537 23.8222 12.8181 22.1823 10.8624 22.1578C10.7821 22.1612 10.702 22.1483 10.6268 22.1198C10.5517 22.0913 10.4831 22.0478 10.4252 21.992C10.3673 21.9361 10.3213 21.869 10.29 21.7948C10.2587 21.7206 10.2428 21.6407 10.2432 21.5601C10.2487 21.2328 10.4804 21.0251 10.8813 20.9882C12.68 20.8218 13.8739 19.7952 14.2047 18.1241C14.2292 17.9591 14.2438 17.7927 14.2481 17.6259C14.2782 17.2036 14.4943 16.9557 14.8451 16.9646C15.2405 16.9735 15.4019 17.2126 15.4298 17.5846C15.5178 19.0311 16.186 20.1046 17.5225 20.6888C17.9323 20.8665 18.4023 20.9212 18.8523 20.9837C19.2187 21.0329 19.4024 21.2083 19.4459 21.5367ZM13.2458 21.5657C13.7648 22.0907 14.335 22.6649 14.844 23.1788L16.4488 21.5713L14.8495 19.9538L13.2458 21.5657Z" fill="#F6F6F6"/>
<path d="M46.9248 10.4589C46.8881 10.7326 46.7188 10.9236 46.3746 10.9705C45.9893 11.0057 45.6079 11.076 45.2353 11.1805C44.5772 11.3982 44.0017 11.8135 43.5867 12.3701C43.1717 12.9268 42.9374 13.5979 42.9154 14.2926C42.8954 14.7484 42.6837 15.0008 42.3218 15.0019C41.9598 15.0031 41.7649 14.7785 41.7415 14.3317C41.6302 12.4193 40.1935 11.0431 38.358 10.9671C37.9192 10.9493 37.7032 10.7136 37.7321 10.3539C37.7644 9.9618 38.0206 9.81435 38.3814 9.78866C40.2514 9.65908 41.4843 8.49065 41.7226 6.6274C41.7349 6.53134 41.7404 6.43304 41.7482 6.33586C41.7738 5.99069 41.971 5.78962 42.3051 5.77733C42.667 5.76504 42.8619 5.99292 42.9121 6.33586C42.9722 6.70448 42.9856 7.08875 43.0969 7.44062C43.3106 8.10096 43.7208 8.6798 44.2723 9.0992C44.8239 9.51861 45.4904 9.75845 46.182 9.78643C46.6609 9.81212 46.9248 10.0333 46.9248 10.4589ZM42.3285 8.78331L40.7247 10.3841L42.3262 11.9982C42.8475 11.4765 43.4099 10.9124 43.9345 10.3885L42.3285 8.78331Z" fill="#F6F6F6"/>
<path d="M29.7467 18.8948C27.9726 18.8725 26.3176 17.1734 26.3365 15.3962C26.3365 14.9561 26.5592 14.6824 26.9145 14.6712C27.2698 14.6601 27.4769 14.917 27.5037 15.3739C27.5783 16.6562 28.5272 17.618 29.8213 17.7197C30.2668 17.7554 30.5185 17.9867 30.4896 18.3385C30.4606 18.6904 30.18 18.9015 29.7467 18.8948Z" fill="#F6F6F6"/>
</svg>
