<svg width="53" height="44" viewBox="0 0 53 44" fill="none" xmlns="http://www.w3.org/2000/svg">
<path d="M28.3425 17.1787C28.7492 16.664 29.1094 16.1936 29.4855 15.7345C29.8106 15.3389 30.1765 15.3095 30.4835 15.6937C32.1669 17.8021 33.8344 19.9196 35.0522 22.351C36.0276 24.295 36.0627 26.205 34.8925 28.0663C32.5623 31.773 27.1655 31.6426 24.9825 27.8294C24.8398 27.5789 24.6971 27.4825 24.4014 27.4837C21.0528 27.5018 18.4042 24.8096 18.5957 21.4657C18.6444 20.6133 19.0137 19.7416 19.3886 18.9504C20.3765 16.8568 21.8004 15.0386 23.2108 13.2192C23.3932 12.9846 23.5767 12.7522 23.7625 12.5198C24.1476 12.0381 24.5305 12.0165 24.8953 12.5085C25.9647 13.9288 27.0148 15.365 28.0672 16.7955C28.1578 16.9123 28.2349 17.0256 28.3425 17.1787ZM30.0111 16.9894C29.839 17.2059 29.7121 17.3578 29.5931 17.5142C28.2632 19.2542 26.9253 20.993 26.0021 22.9949C25.7291 23.5866 25.4708 24.2417 25.4459 24.8811C25.3326 27.9099 28.1646 30.1599 31.11 29.4413C33.7279 28.8031 35.2572 25.9137 34.3045 23.6251C33.2782 21.1687 31.6356 19.1227 30.0077 16.9894H30.0111ZM24.347 26.2844C24.3157 26.1406 24.2945 25.9947 24.2836 25.848C24.2836 25.2993 24.2292 24.7405 24.3221 24.2066C24.5396 22.9597 25.1581 21.8772 25.814 20.8207C26.3634 19.9343 26.9582 19.0762 27.5778 18.1376L24.3651 13.6715C22.8086 15.6847 21.3224 17.6037 20.2734 19.813C19.8622 20.6802 19.6401 21.5689 19.8203 22.5573C20.185 24.6305 22.1913 26.3342 24.3493 26.2832L24.347 26.2844Z" fill="white"/>
<path d="M29.8378 28.6749C28.0343 28.6511 26.3509 26.9281 26.3702 25.1246C26.3702 24.678 26.5968 24.3992 26.9581 24.389C27.3195 24.3788 27.5245 24.6383 27.5574 25.102C27.6322 26.4021 28.5985 27.3781 29.9137 27.4824C30.3668 27.5187 30.6228 27.7533 30.5934 28.1104C30.5639 28.4674 30.2796 28.6805 29.8378 28.6749Z" fill="white"/>
<path d="M25.7313 43.7305C24.1567 43.4574 22.8811 42.5415 21.5398 41.7763C19.7579 40.7561 17.968 39.7632 16.2156 38.6965C12.3821 36.3603 10.1164 32.9404 9.36538 28.5298C9.24053 27.7194 9.18294 26.9001 9.19319 26.0802C9.17884 20.3959 9.17619 14.7112 9.18525 9.02618C9.18525 7.21252 10.0915 6.3363 11.904 6.22294C16.151 5.95883 20.1102 4.82643 23.5143 2.15128C23.9675 1.79308 24.3877 1.38841 24.808 0.989405C25.814 0.0327003 27.2006 0.0213656 28.1895 1.00074C30.863 3.64982 34.1357 5.10868 37.7811 5.79673C38.9717 6.02344 40.1872 6.12433 41.396 6.23995C42.8992 6.38391 43.7976 7.31681 43.8032 8.82554C43.81 10.7344 43.8032 12.6433 43.8032 14.5522C43.8032 15.1189 43.5767 15.4103 43.1484 15.4125C42.7202 15.4148 42.4869 15.1201 42.4869 14.5624C42.4869 12.6807 42.4869 10.7998 42.4869 8.91963C42.4869 7.95839 42.2139 7.62513 41.2725 7.55938C38.8086 7.38255 36.3923 6.98241 34.0655 6.13339C31.5517 5.21636 29.2793 3.90373 27.3705 2.00392C26.7882 1.42582 26.2286 1.41108 25.6712 1.96651C22.8392 4.76181 19.3761 6.31476 15.5223 7.05949C14.2218 7.31 12.8919 7.40976 11.5732 7.56505C10.8856 7.64553 10.5141 8.00486 10.5141 8.69065C10.5141 14.8707 10.4223 21.053 10.5639 27.2296C10.6477 30.8377 12.3085 33.8416 15.0136 36.2447C16.4127 37.4915 18.104 38.2737 19.6945 39.2168C21.1399 40.0749 22.6081 40.8933 24.0615 41.74C25.6822 42.6854 27.3029 42.6899 28.9236 41.7536C31.2606 40.4036 33.6123 39.0762 35.9358 37.7024C39.5665 35.5555 41.6916 32.3657 42.3691 28.2181C42.4602 27.5317 42.4981 26.8393 42.4823 26.1471C42.4948 23.5026 42.488 20.858 42.488 18.2124C42.488 18.1137 42.488 18.0151 42.488 17.9154C42.5005 17.4132 42.7633 17.0936 43.1575 17.1004C43.5517 17.1072 43.8055 17.4143 43.8032 17.8938C43.7851 21.1607 43.9006 24.4355 43.699 27.6899C43.4724 31.3274 41.8717 34.4287 39.1677 36.8862C38.215 37.7523 37.1048 38.4664 35.9958 39.142C34.0315 40.3413 32.0071 41.4442 30.0247 42.614C29.1693 43.1347 28.2344 43.5115 27.2572 43.7294L25.7313 43.7305Z" fill="white"/>
<path d="M40.345 19.0397C40.345 21.5573 40.3971 24.0749 40.3325 26.5902C40.234 30.4216 38.5562 33.4651 35.3413 35.5293C32.8491 37.131 30.2221 38.5263 27.6494 40.0045C26.9697 40.3944 26.2221 40.4828 25.5401 40.0918C22.674 38.4493 19.7389 36.8941 17.0031 35.0487C14.4645 33.3381 13.1062 30.7412 12.7347 27.6886C12.6632 26.973 12.634 26.2539 12.6474 25.5349C12.6372 22.9754 12.6474 20.4158 12.6406 17.8563C12.6406 17.5469 12.7131 17.2578 13.028 17.183C13.2331 17.1342 13.5446 17.1569 13.6783 17.2839C13.8335 17.4312 13.9049 17.7271 13.9117 17.964C13.9264 20.6936 13.8992 23.4231 13.9264 26.1527C13.9638 29.984 15.6256 32.8995 18.9539 34.8378C21.2365 36.1686 23.5316 37.4778 25.8165 38.8052C26.2606 39.0625 26.6876 39.0863 27.1362 38.8256C29.582 37.4087 32.0663 36.0541 34.4679 34.568C37.4563 32.7181 39.0048 29.9455 39.0536 26.4508C39.1227 21.3884 39.0671 16.3249 39.0796 11.2614C39.0796 10.893 38.9414 10.7728 38.6016 10.7264C34.2832 10.1437 30.2968 8.72001 26.8043 6.05959C26.5642 5.8771 26.409 5.89523 26.179 6.0698C23.0071 8.48423 19.4115 9.88074 15.5112 10.5597C15.1215 10.6266 14.7307 10.6878 14.3376 10.732C14.0272 10.7683 13.9094 10.9066 13.9139 11.2308C13.932 12.3643 13.9218 13.4979 13.9207 14.6246C13.9207 15.1472 13.6806 15.4317 13.2603 15.4181C12.857 15.4067 12.6452 15.1392 12.644 14.6246C12.644 13.4503 12.644 12.2763 12.644 11.1027C12.644 10.1369 13.1832 9.58263 14.1575 9.45567C17.4563 9.02266 20.5829 8.06142 23.4466 6.34865C24.149 5.92924 24.8151 5.44182 25.4857 4.9714C26.1779 4.47944 26.8077 4.44997 27.4738 4.95666C30.7205 7.42891 34.4067 8.81069 38.4214 9.38879L38.9663 9.47041C39.8352 9.6053 40.3438 10.1857 40.345 11.0676C40.3495 13.7261 40.3495 16.3846 40.345 19.0431V19.0397Z" fill="white"/>
</svg>
